<svg width="22" height="22" viewBox="0 0 22 22" fill="none" xmlns="http://www.w3.org/2000/svg">
<path fill-rule="evenodd" clip-rule="evenodd" d="M11.0003 2.521C8.84872 2.521 7.10449 4.26522 7.10449 6.41683C7.10449 8.56844 8.84872 10.3127 11.0003 10.3127C13.1519 10.3127 14.8962 8.56844 14.8962 6.41683C14.8962 4.26522 13.1519 2.521 11.0003 2.521ZM5.72949 6.41683C5.72949 3.50583 8.08932 1.146 11.0003 1.146C13.9113 1.146 16.2712 3.50583 16.2712 6.41683C16.2712 9.32783 13.9113 11.6877 11.0003 11.6877C8.08932 11.6877 5.72949 9.32783 5.72949 6.41683Z" fill="#E65F2B"/>
<path fill-rule="evenodd" clip-rule="evenodd" d="M2.43848 20.1667C2.43848 16.1142 6.41417 13.0625 11.0001 13.0625C15.5861 13.0625 19.5618 16.1142 19.5618 20.1667C19.5618 20.5464 19.254 20.8542 18.8743 20.8542C18.4946 20.8542 18.1868 20.5464 18.1868 20.1667C18.1868 17.1241 15.1042 14.4375 11.0001 14.4375C6.89611 14.4375 3.81348 17.1241 3.81348 20.1667C3.81348 20.5464 3.50567 20.8542 3.12598 20.8542C2.74628 20.8542 2.43848 20.5464 2.43848 20.1667Z" fill="#E65F2B"/>
</svg>
