<svg width="22" height="22" viewBox="0 0 22 22" fill="none" xmlns="http://www.w3.org/2000/svg">
<path fill-rule="evenodd" clip-rule="evenodd" d="M13.0349 2.03486C13.6676 1.40212 14.5609 1.146 15.5835 1.146H17.4168C18.4395 1.146 19.3327 1.40212 19.9655 2.03486C20.5982 2.6676 20.8543 3.56085 20.8543 4.5835V6.41683C20.8543 7.43947 20.5982 8.33273 19.9655 8.96547C19.3327 9.5982 18.4395 9.85433 17.4168 9.85433H15.5835C14.5609 9.85433 13.6676 9.5982 13.0349 8.96547C12.4021 8.33273 12.146 7.43947 12.146 6.41683V4.5835C12.146 3.56085 12.4021 2.6676 13.0349 2.03486ZM14.0071 3.00713C13.7232 3.29106 13.521 3.7728 13.521 4.5835V6.41683C13.521 7.22752 13.7232 7.70926 14.0071 7.99319C14.2911 8.27712 14.7728 8.47933 15.5835 8.47933H17.4168C18.2275 8.47933 18.7093 8.27712 18.9932 7.99319C19.2771 7.70926 19.4793 7.22752 19.4793 6.41683V4.5835C19.4793 3.7728 19.2771 3.29106 18.9932 3.00713C18.7093 2.7232 18.2275 2.521 17.4168 2.521H15.5835C14.7728 2.521 14.2911 2.7232 14.0071 3.00713Z" fill="#F1F1F1"/>
<path fill-rule="evenodd" clip-rule="evenodd" d="M2.03486 13.0349C2.6676 12.4021 3.56085 12.146 4.5835 12.146H6.41683C7.43947 12.146 8.33273 12.4021 8.96547 13.0349C9.5982 13.6676 9.85433 14.5609 9.85433 15.5835V17.4168C9.85433 18.4395 9.5982 19.3327 8.96547 19.9655C8.33273 20.5982 7.43947 20.8543 6.41683 20.8543H4.5835C3.56085 20.8543 2.6676 20.5982 2.03486 19.9655C1.40212 19.3327 1.146 18.4395 1.146 17.4168V15.5835C1.146 14.5609 1.40212 13.6676 2.03486 13.0349ZM3.00713 14.0071C2.7232 14.2911 2.521 14.7728 2.521 15.5835V17.4168C2.521 18.2275 2.7232 18.7093 3.00713 18.9932C3.29106 19.2771 3.7728 19.4793 4.5835 19.4793H6.41683C7.22752 19.4793 7.70926 19.2771 7.99319 18.9932C8.27712 18.7093 8.47933 18.2275 8.47933 17.4168V15.5835C8.47933 14.7728 8.27712 14.2911 7.99319 14.0071C7.70926 13.7232 7.22752 13.521 6.41683 13.521H4.5835C3.7728 13.521 3.29106 13.7232 3.00713 14.0071Z" fill="#F1F1F1"/>
<path fill-rule="evenodd" clip-rule="evenodd" d="M5.50016 2.521C3.85481 2.521 2.521 3.85481 2.521 5.50016C2.521 7.14551 3.85481 8.47933 5.50016 8.47933C7.14551 8.47933 8.47933 7.14551 8.47933 5.50016C8.47933 3.85481 7.14551 2.521 5.50016 2.521ZM1.146 5.50016C1.146 3.09542 3.09542 1.146 5.50016 1.146C7.9049 1.146 9.85433 3.09542 9.85433 5.50016C9.85433 7.9049 7.9049 9.85433 5.50016 9.85433C3.09542 9.85433 1.146 7.9049 1.146 5.50016Z" fill="#F1F1F1"/>
<path fill-rule="evenodd" clip-rule="evenodd" d="M16.5002 13.521C14.8548 13.521 13.521 14.8548 13.521 16.5002C13.521 18.1455 14.8548 19.4793 16.5002 19.4793C18.1455 19.4793 19.4793 18.1455 19.4793 16.5002C19.4793 14.8548 18.1455 13.521 16.5002 13.521ZM12.146 16.5002C12.146 14.0954 14.0954 12.146 16.5002 12.146C18.9049 12.146 20.8543 14.0954 20.8543 16.5002C20.8543 18.9049 18.9049 20.8543 16.5002 20.8543C14.0954 20.8543 12.146 18.9049 12.146 16.5002Z" fill="#F1F1F1"/>
</svg>
